{"title":"Ant Man 2015 NEW TS x264 MenaceIISociety","uid":12198819,"size":801042202,"categoryP":"video","categoryS":"movies","magnet":"?xt=urn:btih:b98036a24a073683a1683cf2584a8fa7ef47e544&amp;dn=Ant+Man+2015+NEW+TS+x264+MenaceIISociety&amp;tr=udp%3A%2F%2Ftracker.openbittorrent.com%3A80&amp;tr=udp%3A%2F%2Fopen.demonii.com%3A1337&amp;tr=udp%3A%2F%2Ftracker.coppersurfer.tk%3A6969&amp;tr=udp%3A%2F%2Fexodus.desync.com%3A6969","seeders":20,"leechers":17,"uploader":"SS132203","files":4,"time":1438793613,"description":"Ant Man 2015 NEW TS x264 MenaceIISociety\n &lt;a href=&quot;\nhttp://imgsparrow.co/image/lB&quot; rel=&quot;nofollow&quot; target=&quot;_NEW&quot;&gt;\nhttp://imgsparrow.co/image/lB&lt;/a&gt;\n &lt;a href=&quot;\nhttp://imgsparrow.co/image/9b&quot; rel=&quot;nofollow&quot; target=&quot;_NEW&quot;&gt;\nhttp://imgsparrow.co/image/9b&lt;/a&gt;\n\nInfo : - \n\nThank MenaceIISociety Not ME!\n &lt;a href=&quot;\nhttp://www.imdb.com/title/tt0478970/&quot; rel=&quot;nofollow&quot; target=&quot;_NEW&quot;&gt;\nhttp://www.imdb.com/title/tt0478970/&lt;/a&gt;\nSource: Hive-CM8 [THANKS]\n\nGeneral\nComplete name: Ant-Man.2015.NEW.TS.x264-MenaceIISociety.mp4\nFormat: MPEG-4\nFormat profile: Base Media\nCodec ID: isom\nFile size: 753 MiB\nDuration: 1h 48mn\nOverall bit rate mode: Variable\nOverall bit rate: 967 Kbps\nEncoded date: UTC 2015-08-05 02:00:13\nTagged date: UTC 2015-08-05 02:00:13\n\nVideo\nID: 1\nFormat: AVC\nFormat/Info: Advanced Video Codec\nFormat profile: &lt;a class=&quot;__cf_email__&quot; href=&quot;/cdn-cgi/l/email-protection&quot; data-cfemail=&quot;1a52737d725a562e342b&quot;&gt;[email&amp;#160;protected]&lt;/a&gt;&lt;script data-cfhash='f9e31' type=&quot;text/javascript&quot;&gt;\n/* &lt;![CDATA[ */!function(){try{var t=&quot;currentScript&quot;in document?document.currentScript:function(){for(var t=document.getElementsByTagName(&quot;script&quot;),e=t.length;e--;)if(t[e].getAttribute(&quot;data-cfhash&quot;))return t[e]}();if(t&amp;&amp;t.previousSibling){var e,r,n,i,c=t.previousSibling,a=c.getAttribute(&quot;data-cfemail&quot;);if(a){for(e=&quot;&quot;,r=parseInt(a.substr(0,2),16),n=2;a.length-n;n+=2)i=parseInt(a.substr(n,2),16)^r,e+=String.fromCharCode(i);e=document.createTextNode(e),c.parentNode.replaceChild(e,c)}t.parentNode.removeChild(t);}}catch(u){}}()/* ]]&gt; */&lt;/script&gt;\nFormat settings, CABAC: Yes\nFormat settings, ReFrames: 3 frames\nCodec ID: avc1\nCodec ID/Info: Advanced Video Coding\nDuration: 1h 48mn\nBit rate mode: Variable\nBit rate: 826 Kbps\nMaximum bit rate: 40.0 Mbps\nWidth: 720 pixels\nHeight: 368 pixels\nDisplay aspect ratio: 1.957\nFrame rate mode: Constant\nFrame rate: 25.000 fps\nColor space: YUV\nChroma subsampling: 4:2:0\nBit depth: 8 bits\nScan type: Progressive\nBits/(Pixel*Frame): 0.125\nStream size: 644 MiB (85%)\nWriting library: x264 core 148 r2579 73ae2d1\n\nAudio\nID: 2\nFormat: AAC\nFormat/Info: Advanced Audio Codec\nFormat profile: LC\nCodec ID: 40\nDuration: 1h 48mn\nBit rate mode: Variable\nBit rate: 136 Kbps\nMaximum bit rate: 160 Kbps\nChannel(s): 2 channels\nChannel positions: Front: L R\nSampling rate: 48.0 KHz\nCompression mode: Lossy\nStream size: 106 MiB (14%)\nEncoded date: UTC 2015-08-05 00:52:54\nTagged date: UTC 2015-08-05 02:01:08 \n\nScreens : - \n &lt;a href=&quot;\nhttp://imgsparrow.co/image/8Ng&quot; rel=&quot;nofollow&quot; target=&quot;_NEW&quot;&gt;\nhttp://imgsparrow.co/image/8Ng&lt;/a&gt; &lt;a href=&quot;\nhttp://imgsparrow.co/image/8Nq&quot; rel=&quot;nofollow&quot; target=&quot;_NEW&quot;&gt;\nhttp://imgsparrow.co/image/8Nq&lt;/a&gt; &lt;a href=&quot;\nhttp://imgsparrow.co/image/8Nz&quot; rel=&quot;nofollow&quot; target=&quot;_NEW&quot;&gt;\nhttp://imgsparrow.co/image/8Nz&lt;/a&gt; &lt;a href=&quot;\nhttp://imgsparrow.co/image/8N7&quot; rel=&quot;nofollow&quot; target=&quot;_NEW&quot;&gt;\nhttp://imgsparrow.co/image/8N7&lt;/a&gt; &lt;a href=&quot;\nhttp://imgsparrow.co/image/8Nk&quot; rel=&quot;nofollow&quot; target=&quot;_NEW&quot;&gt;\nhttp://imgsparrow.co/image/8Nk&lt;/a&gt; &lt;a href=&quot;\nhttp://imgsparrow.co/image/8Nn&quot; rel=&quot;nofollow&quot; target=&quot;_NEW&quot;&gt;\nhttp://imgsparrow.co/image/8Nn&lt;/a&gt; &lt;a href=&quot;\nhttp://imgsparrow.co/image/8Ny&quot; rel=&quot;nofollow&quot; target=&quot;_NEW&quot;&gt;\nhttp://imgsparrow.co/image/8Ny&lt;/a&gt; &lt;a href=&quot;\nhttp://imgsparrow.co/image/8N5&quot; rel=&quot;nofollow&quot; target=&quot;_NEW&quot;&gt;\nhttp://imgsparrow.co/image/8N5&lt;/a&gt; &lt;a href=&quot;\nhttp://imgsparrow.co/image/8NA&quot; rel=&quot;nofollow&quot; target=&quot;_NEW&quot;&gt;\nhttp://imgsparrow.co/image/8NA&lt;/a&gt; &lt;a href=&quot;\nhttp://imgsparrow.co/image/8NQ&quot; rel=&quot;nofollow&quot; target=&quot;_NEW&quot;&gt;\nhttp://imgsparrow.co/image/8NQ&lt;/a&gt;\n &lt;a href=&quot;\nhttp://imgsparrow.co/image/N2&quot; rel=&quot;nofollow&quot; target=&quot;_NEW&quot;&gt;\nhttp://imgsparrow.co/image/N2&lt;/a&gt;","torrent":{"xt":"urn:btih:b98036a24a073683a1683cf2584a8fa7ef47e544","amp;dn":"Ant+Man+2015+NEW+TS+x264+MenaceIISociety","amp;tr":["udp%3A%2F%2Ftracker.openbittorrent.com%3A80","udp%3A%2F%2Fopen.demonii.com%3A1337","udp%3A%2F%2Ftracker.coppersurfer.tk%3A6969","udp%3A%2F%2Fexodus.desync.com%3A6969"],"infoHash":"b98036a24a073683a1683cf2584a8fa7ef47e544","infoHashBuffer":{"type":"Buffer","data":[185,128,54,162,74,7,54,131,161,104,60,242,88,74,143,167,239,71,229,68]},"announce":[],"urlList":[]}}